<mxfile host="app.diagrams.net" agent="Mozilla/5.0 (Windows NT 10.0; Win64; x64) AppleWebKit/537.36 (KHTML, like Gecko) Chrome/109.0.0.0 Safari/537.36" version="24.7.12">
  <diagram id="C5RBs43oDa-KdzZeNtuy" name="Page-1">
    <mxGraphModel dx="880" dy="550" grid="1" gridSize="10" guides="1" tooltips="1" connect="1" arrows="1" fold="1" page="1" pageScale="1" pageWidth="827" pageHeight="1169" math="0" shadow="0">
      <root>
        <mxCell id="WIyWlLk6GJQsqaUBKTNV-0" />
        <mxCell id="WIyWlLk6GJQsqaUBKTNV-1" parent="WIyWlLk6GJQsqaUBKTNV-0" />
        <mxCell id="YLuuDzwJQCkmbXKskwn9-1" value="START" style="ellipse;whiteSpace=wrap;html=1;" vertex="1" parent="WIyWlLk6GJQsqaUBKTNV-1">
          <mxGeometry x="294" y="20" width="106" height="30" as="geometry" />
        </mxCell>
        <mxCell id="YLuuDzwJQCkmbXKskwn9-4" value="" style="endArrow=classic;html=1;rounded=0;exitX=0.5;exitY=1;exitDx=0;exitDy=0;entryX=0.5;entryY=0;entryDx=0;entryDy=0;" edge="1" parent="WIyWlLk6GJQsqaUBKTNV-1" source="YLuuDzwJQCkmbXKskwn9-1">
          <mxGeometry width="50" height="50" relative="1" as="geometry">
            <mxPoint x="390" y="310" as="sourcePoint" />
            <mxPoint x="347" y="80" as="targetPoint" />
          </mxGeometry>
        </mxCell>
        <mxCell id="YLuuDzwJQCkmbXKskwn9-6" value="contiune = True" style="rounded=0;whiteSpace=wrap;html=1;" vertex="1" parent="WIyWlLk6GJQsqaUBKTNV-1">
          <mxGeometry x="262" y="80" width="170" height="30" as="geometry" />
        </mxCell>
        <mxCell id="YLuuDzwJQCkmbXKskwn9-8" value="continue != False&lt;div&gt;?&lt;/div&gt;" style="rhombus;whiteSpace=wrap;html=1;" vertex="1" parent="WIyWlLk6GJQsqaUBKTNV-1">
          <mxGeometry x="281" y="130" width="133" height="80" as="geometry" />
        </mxCell>
        <mxCell id="YLuuDzwJQCkmbXKskwn9-9" value="" style="endArrow=classic;html=1;rounded=0;exitX=0.5;exitY=1;exitDx=0;exitDy=0;entryX=0.5;entryY=0;entryDx=0;entryDy=0;" edge="1" parent="WIyWlLk6GJQsqaUBKTNV-1" source="YLuuDzwJQCkmbXKskwn9-6" target="YLuuDzwJQCkmbXKskwn9-8">
          <mxGeometry width="50" height="50" relative="1" as="geometry">
            <mxPoint x="390" y="310" as="sourcePoint" />
            <mxPoint x="440" y="260" as="targetPoint" />
          </mxGeometry>
        </mxCell>
        <mxCell id="YLuuDzwJQCkmbXKskwn9-10" value="" style="endArrow=classic;html=1;rounded=0;exitX=0.5;exitY=1;exitDx=0;exitDy=0;entryX=0.5;entryY=0;entryDx=0;entryDy=0;" edge="1" parent="WIyWlLk6GJQsqaUBKTNV-1" source="YLuuDzwJQCkmbXKskwn9-8" target="YLuuDzwJQCkmbXKskwn9-16">
          <mxGeometry width="50" height="50" relative="1" as="geometry">
            <mxPoint x="390" y="310" as="sourcePoint" />
            <mxPoint x="348" y="260" as="targetPoint" />
          </mxGeometry>
        </mxCell>
        <mxCell id="YLuuDzwJQCkmbXKskwn9-11" value="" style="endArrow=classic;html=1;rounded=0;exitX=1;exitY=0.5;exitDx=0;exitDy=0;entryX=0.408;entryY=0.017;entryDx=0;entryDy=0;entryPerimeter=0;" edge="1" parent="WIyWlLk6GJQsqaUBKTNV-1" source="YLuuDzwJQCkmbXKskwn9-8" target="YLuuDzwJQCkmbXKskwn9-37">
          <mxGeometry width="50" height="50" relative="1" as="geometry">
            <mxPoint x="358" y="220" as="sourcePoint" />
            <mxPoint x="560" y="280" as="targetPoint" />
            <Array as="points">
              <mxPoint x="560" y="170" />
            </Array>
          </mxGeometry>
        </mxCell>
        <mxCell id="YLuuDzwJQCkmbXKskwn9-12" value="YES" style="text;html=1;align=center;verticalAlign=middle;whiteSpace=wrap;rounded=0;" vertex="1" parent="WIyWlLk6GJQsqaUBKTNV-1">
          <mxGeometry x="294" y="210" width="60" height="30" as="geometry" />
        </mxCell>
        <mxCell id="YLuuDzwJQCkmbXKskwn9-13" value="NO" style="text;html=1;align=center;verticalAlign=middle;whiteSpace=wrap;rounded=0;" vertex="1" parent="WIyWlLk6GJQsqaUBKTNV-1">
          <mxGeometry x="440" y="140" width="60" height="30" as="geometry" />
        </mxCell>
        <mxCell id="YLuuDzwJQCkmbXKskwn9-14" value="STOP" style="ellipse;whiteSpace=wrap;html=1;" vertex="1" parent="WIyWlLk6GJQsqaUBKTNV-1">
          <mxGeometry x="517" y="450" width="106" height="30" as="geometry" />
        </mxCell>
        <mxCell id="YLuuDzwJQCkmbXKskwn9-16" value="Input the bidders name" style="shape=parallelogram;perimeter=parallelogramPerimeter;whiteSpace=wrap;html=1;fixedSize=1;" vertex="1" parent="WIyWlLk6GJQsqaUBKTNV-1">
          <mxGeometry x="271" y="260" width="153" height="30" as="geometry" />
        </mxCell>
        <mxCell id="YLuuDzwJQCkmbXKskwn9-17" value="Input the bid" style="shape=parallelogram;perimeter=parallelogramPerimeter;whiteSpace=wrap;html=1;fixedSize=1;" vertex="1" parent="WIyWlLk6GJQsqaUBKTNV-1">
          <mxGeometry x="270.5" y="320" width="153" height="30" as="geometry" />
        </mxCell>
        <mxCell id="YLuuDzwJQCkmbXKskwn9-18" value="" style="endArrow=classic;html=1;rounded=0;entryX=0.461;entryY=0.033;entryDx=0;entryDy=0;entryPerimeter=0;" edge="1" parent="WIyWlLk6GJQsqaUBKTNV-1" target="YLuuDzwJQCkmbXKskwn9-17">
          <mxGeometry width="50" height="50" relative="1" as="geometry">
            <mxPoint x="341" y="290" as="sourcePoint" />
            <mxPoint x="358" y="270" as="targetPoint" />
          </mxGeometry>
        </mxCell>
        <mxCell id="YLuuDzwJQCkmbXKskwn9-19" value="add bidders name&amp;nbsp;&lt;div&gt;as key and&amp;nbsp;&lt;/div&gt;&lt;div&gt;the bid as the value&lt;/div&gt;" style="rounded=0;whiteSpace=wrap;html=1;" vertex="1" parent="WIyWlLk6GJQsqaUBKTNV-1">
          <mxGeometry x="270.5" y="380" width="140" height="50" as="geometry" />
        </mxCell>
        <mxCell id="YLuuDzwJQCkmbXKskwn9-20" value="" style="endArrow=classic;html=1;rounded=0;exitX=0.454;exitY=0.967;exitDx=0;exitDy=0;entryX=0.5;entryY=0;entryDx=0;entryDy=0;exitPerimeter=0;" edge="1" parent="WIyWlLk6GJQsqaUBKTNV-1" source="YLuuDzwJQCkmbXKskwn9-17" target="YLuuDzwJQCkmbXKskwn9-19">
          <mxGeometry width="50" height="50" relative="1" as="geometry">
            <mxPoint x="358" y="220" as="sourcePoint" />
            <mxPoint x="358" y="270" as="targetPoint" />
          </mxGeometry>
        </mxCell>
        <mxCell id="YLuuDzwJQCkmbXKskwn9-21" value="Input &quot;yes&quot; to continue&lt;div&gt;&quot;no&quot; to stop&lt;/div&gt;" style="shape=parallelogram;perimeter=parallelogramPerimeter;whiteSpace=wrap;html=1;fixedSize=1;" vertex="1" parent="WIyWlLk6GJQsqaUBKTNV-1">
          <mxGeometry x="271" y="460" width="153" height="30" as="geometry" />
        </mxCell>
        <mxCell id="YLuuDzwJQCkmbXKskwn9-22" value="" style="endArrow=classic;html=1;rounded=0;exitX=0.5;exitY=1;exitDx=0;exitDy=0;" edge="1" parent="WIyWlLk6GJQsqaUBKTNV-1" source="YLuuDzwJQCkmbXKskwn9-19">
          <mxGeometry width="50" height="50" relative="1" as="geometry">
            <mxPoint x="350" y="359" as="sourcePoint" />
            <mxPoint x="340" y="460" as="targetPoint" />
          </mxGeometry>
        </mxCell>
        <mxCell id="YLuuDzwJQCkmbXKskwn9-23" value="yes or no?" style="rhombus;whiteSpace=wrap;html=1;" vertex="1" parent="WIyWlLk6GJQsqaUBKTNV-1">
          <mxGeometry x="307.5" y="520" width="80" height="80" as="geometry" />
        </mxCell>
        <mxCell id="YLuuDzwJQCkmbXKskwn9-25" value="" style="endArrow=classic;html=1;rounded=0;entryX=0.5;entryY=0;entryDx=0;entryDy=0;" edge="1" parent="WIyWlLk6GJQsqaUBKTNV-1" source="YLuuDzwJQCkmbXKskwn9-21" target="YLuuDzwJQCkmbXKskwn9-23">
          <mxGeometry width="50" height="50" relative="1" as="geometry">
            <mxPoint x="351" y="440" as="sourcePoint" />
            <mxPoint x="350" y="470" as="targetPoint" />
          </mxGeometry>
        </mxCell>
        <mxCell id="YLuuDzwJQCkmbXKskwn9-26" value="" style="endArrow=classic;html=1;rounded=0;exitX=0;exitY=0.5;exitDx=0;exitDy=0;" edge="1" parent="WIyWlLk6GJQsqaUBKTNV-1" source="YLuuDzwJQCkmbXKskwn9-32">
          <mxGeometry width="50" height="50" relative="1" as="geometry">
            <mxPoint x="190" y="680" as="sourcePoint" />
            <mxPoint x="280" y="170" as="targetPoint" />
            <Array as="points">
              <mxPoint x="180" y="730" />
              <mxPoint x="180" y="560" />
              <mxPoint x="180" y="170" />
            </Array>
          </mxGeometry>
        </mxCell>
        <mxCell id="YLuuDzwJQCkmbXKskwn9-27" value="" style="endArrow=classic;html=1;rounded=0;exitX=0.5;exitY=1;exitDx=0;exitDy=0;" edge="1" parent="WIyWlLk6GJQsqaUBKTNV-1" source="YLuuDzwJQCkmbXKskwn9-23" target="YLuuDzwJQCkmbXKskwn9-28">
          <mxGeometry width="50" height="50" relative="1" as="geometry">
            <mxPoint x="358" y="500" as="sourcePoint" />
            <mxPoint x="348" y="630" as="targetPoint" />
          </mxGeometry>
        </mxCell>
        <mxCell id="YLuuDzwJQCkmbXKskwn9-28" value="contiune = True" style="rounded=0;whiteSpace=wrap;html=1;" vertex="1" parent="WIyWlLk6GJQsqaUBKTNV-1">
          <mxGeometry x="262" y="630" width="170" height="30" as="geometry" />
        </mxCell>
        <mxCell id="YLuuDzwJQCkmbXKskwn9-29" value="Yes" style="text;html=1;align=center;verticalAlign=middle;resizable=0;points=[];autosize=1;strokeColor=none;fillColor=none;" vertex="1" parent="WIyWlLk6GJQsqaUBKTNV-1">
          <mxGeometry x="300" y="588" width="40" height="30" as="geometry" />
        </mxCell>
        <mxCell id="YLuuDzwJQCkmbXKskwn9-30" value="continue = False" style="rounded=0;whiteSpace=wrap;html=1;" vertex="1" parent="WIyWlLk6GJQsqaUBKTNV-1">
          <mxGeometry x="424" y="545" width="170" height="30" as="geometry" />
        </mxCell>
        <mxCell id="YLuuDzwJQCkmbXKskwn9-31" value="" style="endArrow=classic;html=1;rounded=0;exitX=1;exitY=0.5;exitDx=0;exitDy=0;entryX=0;entryY=0.5;entryDx=0;entryDy=0;" edge="1" parent="WIyWlLk6GJQsqaUBKTNV-1" source="YLuuDzwJQCkmbXKskwn9-23" target="YLuuDzwJQCkmbXKskwn9-30">
          <mxGeometry width="50" height="50" relative="1" as="geometry">
            <mxPoint x="358" y="610" as="sourcePoint" />
            <mxPoint x="357" y="640" as="targetPoint" />
          </mxGeometry>
        </mxCell>
        <mxCell id="YLuuDzwJQCkmbXKskwn9-32" value="" style="ellipse;whiteSpace=wrap;html=1;aspect=fixed;" vertex="1" parent="WIyWlLk6GJQsqaUBKTNV-1">
          <mxGeometry x="327.5" y="710" width="40" height="40" as="geometry" />
        </mxCell>
        <mxCell id="YLuuDzwJQCkmbXKskwn9-33" value="" style="endArrow=classic;html=1;rounded=0;exitX=0.5;exitY=1;exitDx=0;exitDy=0;entryX=0.5;entryY=0;entryDx=0;entryDy=0;" edge="1" parent="WIyWlLk6GJQsqaUBKTNV-1" source="YLuuDzwJQCkmbXKskwn9-28" target="YLuuDzwJQCkmbXKskwn9-32">
          <mxGeometry width="50" height="50" relative="1" as="geometry">
            <mxPoint x="358" y="610" as="sourcePoint" />
            <mxPoint x="357" y="640" as="targetPoint" />
          </mxGeometry>
        </mxCell>
        <mxCell id="YLuuDzwJQCkmbXKskwn9-34" value="" style="endArrow=classic;html=1;rounded=0;exitX=0.453;exitY=1.067;exitDx=0;exitDy=0;entryX=1;entryY=0.5;entryDx=0;entryDy=0;exitPerimeter=0;" edge="1" parent="WIyWlLk6GJQsqaUBKTNV-1" source="YLuuDzwJQCkmbXKskwn9-30" target="YLuuDzwJQCkmbXKskwn9-32">
          <mxGeometry width="50" height="50" relative="1" as="geometry">
            <mxPoint x="398" y="570" as="sourcePoint" />
            <mxPoint x="434" y="570" as="targetPoint" />
            <Array as="points">
              <mxPoint x="501" y="730" />
            </Array>
          </mxGeometry>
        </mxCell>
        <mxCell id="YLuuDzwJQCkmbXKskwn9-37" value="find the max bid amount from the dict" style="rounded=1;whiteSpace=wrap;html=1;" vertex="1" parent="WIyWlLk6GJQsqaUBKTNV-1">
          <mxGeometry x="510" y="280" width="120" height="60" as="geometry" />
        </mxCell>
        <mxCell id="YLuuDzwJQCkmbXKskwn9-38" value="output the bidders name&lt;div&gt;and the bid&lt;/div&gt;" style="shape=parallelogram;perimeter=parallelogramPerimeter;whiteSpace=wrap;html=1;fixedSize=1;" vertex="1" parent="WIyWlLk6GJQsqaUBKTNV-1">
          <mxGeometry x="488.25" y="360" width="163.5" height="50" as="geometry" />
        </mxCell>
        <mxCell id="YLuuDzwJQCkmbXKskwn9-39" value="" style="endArrow=classic;html=1;rounded=0;exitX=0.5;exitY=1;exitDx=0;exitDy=0;" edge="1" parent="WIyWlLk6GJQsqaUBKTNV-1" source="YLuuDzwJQCkmbXKskwn9-37" target="YLuuDzwJQCkmbXKskwn9-38">
          <mxGeometry width="50" height="50" relative="1" as="geometry">
            <mxPoint x="390" y="450" as="sourcePoint" />
            <mxPoint x="440" y="400" as="targetPoint" />
          </mxGeometry>
        </mxCell>
        <mxCell id="YLuuDzwJQCkmbXKskwn9-40" value="" style="endArrow=classic;html=1;rounded=0;exitX=0.5;exitY=1;exitDx=0;exitDy=0;entryX=0.5;entryY=0;entryDx=0;entryDy=0;" edge="1" parent="WIyWlLk6GJQsqaUBKTNV-1" source="YLuuDzwJQCkmbXKskwn9-38" target="YLuuDzwJQCkmbXKskwn9-14">
          <mxGeometry width="50" height="50" relative="1" as="geometry">
            <mxPoint x="580" y="350" as="sourcePoint" />
            <mxPoint x="580" y="370" as="targetPoint" />
          </mxGeometry>
        </mxCell>
      </root>
    </mxGraphModel>
  </diagram>
</mxfile>
